<svg xmlns="http://www.w3.org/2000/svg" width="100%" viewBox="0 0 680 460" role="img" aria-labelledby="rj-title rj-desc">
  <title id="rj-title">Russian Judge protocol flow</title>
  <desc id="rj-desc">A flowchart showing the Russian Judge review protocol: work product enters the reviewer, which returns a verdict with score and C/I/M findings. If the floor is met (score >= 9.0 AND zero Critical AND zero Important), the protocol halts at PASS. Otherwise the author addresses findings and dispatches another round.</desc>
  <style>
    .t  { font-family: -apple-system, BlinkMacSystemFont, 'Segoe UI', sans-serif; font-size: 14px; font-weight: 400; }
    .ts { font-family: -apple-system, BlinkMacSystemFont, 'Segoe UI', sans-serif; font-size: 12px; font-weight: 400; }
    .th { font-family: -apple-system, BlinkMacSystemFont, 'Segoe UI', sans-serif; font-size: 14px; font-weight: 500; }
    .arr { fill: none; stroke: #5F5E5A; stroke-width: 1.5; }
    .text-dark { fill: #2C2C2A; }
  </style>
  <defs>
    <marker id="arrow" viewBox="0 0 10 10" refX="8" refY="5" markerWidth="6" markerHeight="6" orient="auto-start-reverse">
      <path d="M2 1L8 5L2 9" fill="none" stroke="context-stroke" stroke-width="1.5" stroke-linecap="round" stroke-linejoin="round"/>
    </marker>
  </defs>

  <!-- Work product -->
  <rect x="40" y="30" width="180" height="56" rx="8" fill="#F1EFE8" stroke="#5F5E5A" stroke-width="0.5"/>
  <text class="th text-dark" x="130" y="55" text-anchor="middle">Work product</text>
  <text class="ts text-dark" x="130" y="74" text-anchor="middle">Code, spec, prose, claim</text>

  <line x1="220" y1="58" x2="276" y2="58" class="arr" marker-end="url(#arrow)"/>

  <!-- Reviewer -->
  <rect x="280" y="30" width="180" height="56" rx="8" fill="#EEEDFE" stroke="#534AB7" stroke-width="0.5"/>
  <text class="th" x="370" y="55" text-anchor="middle" fill="#3C3489">Reviewer</text>
  <text class="ts" x="370" y="74" text-anchor="middle" fill="#534AB7">Adversarial role primed</text>

  <line x1="370" y1="86" x2="370" y2="120" class="arr" marker-end="url(#arrow)"/>

  <!-- Verdict -->
  <rect x="240" y="124" width="260" height="64" rx="8" fill="#E6F1FB" stroke="#185FA5" stroke-width="0.5"/>
  <text class="th" x="370" y="149" text-anchor="middle" fill="#0C447C">Verdict</text>
  <text class="ts" x="370" y="170" text-anchor="middle" fill="#185FA5">Score 0-10 + C/I/M finding list</text>

  <line x1="370" y1="188" x2="370" y2="220" class="arr" marker-end="url(#arrow)"/>

  <!-- Floor check -->
  <rect x="220" y="224" width="300" height="64" rx="8" fill="#FAEEDA" stroke="#854F0B" stroke-width="0.5"/>
  <text class="th" x="370" y="249" text-anchor="middle" fill="#633806">Floor met?</text>
  <text class="ts" x="370" y="270" text-anchor="middle" fill="#854F0B">Score ≥ 9.0 AND 0 Critical AND 0 Important</text>

  <text class="ts text-dark" x="540" y="256">yes</text>
  <line x1="520" y1="256" x2="600" y2="256" class="arr" marker-end="url(#arrow)"/>

  <!-- PASS -->
  <rect x="540" y="280" width="120" height="44" rx="8" fill="#E1F5EE" stroke="#0F6E56" stroke-width="0.5"/>
  <text class="th" x="600" y="307" text-anchor="middle" fill="#085041">PASS - ship</text>

  <line x1="600" y1="256" x2="600" y2="280" stroke="#0F6E56" stroke-width="1.5" fill="none"/>

  <text class="ts text-dark" x="180" y="256">no</text>
  <line x1="220" y1="256" x2="160" y2="256" class="arr"/>
  <line x1="160" y1="256" x2="160" y2="350" class="arr"/>

  <!-- Author addresses -->
  <rect x="40" y="350" width="240" height="56" rx="8" fill="#FAECE7" stroke="#993C1D" stroke-width="0.5"/>
  <text class="th" x="160" y="375" text-anchor="middle" fill="#712B13">Author addresses findings</text>
  <text class="ts" x="160" y="394" text-anchor="middle" fill="#993C1D">Critical and Important only</text>

  <line x1="160" y1="406" x2="20" y2="406" class="arr"/>
  <line x1="20" y1="406" x2="20" y2="110" class="arr"/>
  <line x1="20" y1="110" x2="370" y2="110" class="arr"/>
  <line x1="370" y1="110" x2="370" y2="86" class="arr" marker-end="url(#arrow)"/>
  <text class="ts text-dark" x="195" y="103" text-anchor="middle">dispatch R2 / R3</text>

  <!-- Findings legend -->
  <rect x="540" y="30" width="100" height="180" rx="8" fill="#F1EFE8" stroke="#5F5E5A" stroke-width="0.5"/>
  <text class="th text-dark" x="590" y="55" text-anchor="middle">Findings</text>
  <text class="ts text-dark" x="555" y="84">C - Critical</text>
  <text class="ts text-dark" x="555" y="102">blocking</text>
  <text class="ts text-dark" x="555" y="128">I - Important</text>
  <text class="ts text-dark" x="555" y="146">blocks at floor</text>
  <text class="ts text-dark" x="555" y="172">M - Minor</text>
  <text class="ts text-dark" x="555" y="190">non-blocking</text>
</svg>
